<svg width="16.000000" height="16.000000" viewBox="0 0 16 16" fill="none" xmlns="http://www.w3.org/2000/svg" xmlns:xlink="http://www.w3.org/1999/xlink">
	<desc>
			Created with Pixso.
	</desc>
	<defs>
		<clipPath id="clip30_3061">
			<rect id="heroicons-solid/check" width="16.000000" height="16.000000" fill="white" fill-opacity="0"/>
		</clipPath>
	</defs>
	<g clip-path="url(#clip30_3061)">
		<path id="Vector 616 (Stroke)" d="M13.2773 3.08398C13.5073 3.2373 13.5693 3.54785 13.416 3.77734L7.41602 12.7773C7.33301 12.9019 7.19824 12.9829 7.04932 12.9976C6.90039 13.0122 6.75244 12.9595 6.64648 12.8535L2.64648 8.85352C2.45117 8.6582 2.45117 8.3418 2.64648 8.14648C2.8418 7.95117 3.1582 7.95117 3.35352 8.14648L6.92236 11.7153L12.584 3.22266C12.7373 2.99316 13.0474 2.93066 13.2773 3.08398Z" fill="#15803D" fill-opacity="1.000000" fill-rule="evenodd"/>
		<path id="Vector 616 (Stroke)" d="M6.56152 11.3545L3.35352 8.14648C3.1582 7.95117 2.8418 7.95117 2.64648 8.14648C2.45117 8.3418 2.45117 8.6582 2.64648 8.85352L6.64648 12.8535C6.75244 12.9595 6.90039 13.0122 7.04932 12.9976C7.19824 12.9829 7.33301 12.9019 7.41602 12.7773L13.416 3.77734C13.5693 3.54785 13.5073 3.2373 13.2773 3.08398C13.0474 2.93066 12.7373 2.99316 12.584 3.22266L7.20508 11.291L6.92236 11.7153L6.56152 11.3545Z" fill="#15803D" fill-opacity="1.000000" fill-rule="evenodd"/>
	</g>
</svg>
