<svg width="49" height="48" viewBox="0 0 49 48" fill="none" xmlns="http://www.w3.org/2000/svg">
<path fill-rule="evenodd" clip-rule="evenodd" d="M21.5 7.5C14.8726 7.5 9.5 12.8726 9.5 19.5C9.5 19.8337 9.51366 20.1645 9.54048 20.4918C5.97254 22.1681 3.5 25.7937 3.5 30C3.5 35.799 8.20101 40.5 14 40.5H36.5C41.4706 40.5 45.5 36.4706 45.5 31.5C45.5 28.1305 43.6489 25.1963 40.9116 23.654C40.9698 23.2773 41 22.8918 41 22.5C41 18.3579 37.6421 15 33.5 15C33.2118 15 32.927 15.0163 32.6466 15.0482C30.8786 10.6256 26.5559 7.5 21.5 7.5ZM26 19.5C26 18.6716 25.3284 18 24.5 18C23.6716 18 23 18.6716 23 19.5V29.3787L19.5607 25.9393C18.9749 25.3536 18.0251 25.3536 17.4393 25.9393C16.8536 26.5251 16.8536 27.4749 17.4393 28.0607L23.4393 34.0607C24.0251 34.6464 24.9749 34.6464 25.5607 34.0607L31.5607 28.0607C32.1464 27.4749 32.1464 26.5251 31.5607 25.9393C30.9749 25.3536 30.0251 25.3536 29.4393 25.9393L26 29.3787V19.5Z" fill="#0F172A"/>
</svg>
