<svg width="20.000000" height="20.000000" viewBox="0 0 20 20" fill="none" xmlns="http://www.w3.org/2000/svg" xmlns:xlink="http://www.w3.org/1999/xlink">
	<desc>
			Created with Pixso.
	</desc>
	<defs>
		<clipPath id="clip27_348">
			<rect id="eye-off" width="20.000000" height="20.000000" fill="white" fill-opacity="0"/>
		</clipPath>
	</defs>
	<rect id="eye-off" width="20.000000" height="20.000000" fill="#FFFFFF" fill-opacity="0"/>
	<g clip-path="url(#clip27_348)">
		<path id="Vector" d="M14.9502 14.95C13.5259 16.0358 11.791 16.6373 10 16.6666C4.16699 16.6666 0.833496 10 0.833496 10C1.87012 8.06824 3.30762 6.38049 5.05029 5.04993M8.25 3.53333C8.82373 3.39905 9.41113 3.33191 10 3.33325C15.8335 3.33325 19.167 10 19.167 10C18.6611 10.9463 18.0576 11.8372 17.3667 12.6583M11.7666 11.7666C11.5381 12.0122 11.2617 12.2092 10.9551 12.3458C10.6484 12.4825 10.3174 12.556 9.98193 12.5619C9.646 12.5679 9.31299 12.5061 9.00146 12.3804C8.69043 12.2546 8.40723 12.0675 8.16992 11.8301C7.93262 11.5927 7.74561 11.3099 7.61963 10.9987C7.49414 10.6873 7.43213 10.3539 7.43799 10.0182C7.44434 9.6825 7.51758 9.35144 7.6543 9.0448C7.79102 8.73816 7.98779 8.46216 8.2334 8.23328" stroke="#121417" stroke-opacity="1.000000" stroke-width="2.000000" stroke-linejoin="round"/>
		<path id="Vector" d="M0.833496 0.833374L19.167 19.1667" stroke="#121417" stroke-opacity="1.000000" stroke-width="2.000000" stroke-linejoin="round" stroke-linecap="round"/>
	</g>
</svg>
