<svg width="16.000000" height="16.000000" viewBox="0 0 16 16" fill="none" xmlns="http://www.w3.org/2000/svg" xmlns:xlink="http://www.w3.org/1999/xlink">
	<desc>
			Created with Pixso.
	</desc>
	<defs>
		<clipPath id="clip33_3194">
			<rect id="heroicons-solid/x-mark" width="16.000000" height="16.000000" fill="white" fill-opacity="0"/>
		</clipPath>
	</defs>
	<g clip-path="url(#clip33_3194)">
		<path id="Vector (Stroke)" d="M3.64648 3.64648C3.8418 3.45117 4.1582 3.45117 4.35352 3.64648L8 7.29297L11.6465 3.64648C11.8418 3.45117 12.1582 3.45117 12.3535 3.64648C12.5488 3.8418 12.5488 4.1582 12.3535 4.35352L8.70703 8L12.3535 11.6465C12.5488 11.8418 12.5488 12.1582 12.3535 12.3535C12.1582 12.5488 11.8418 12.5488 11.6465 12.3535L8 8.70703L4.35352 12.3535C4.1582 12.5488 3.8418 12.5488 3.64648 12.3535C3.45117 12.1582 3.45117 11.8418 3.64648 11.6465L7.29297 8L3.64648 4.35352C3.45117 4.1582 3.45117 3.8418 3.64648 3.64648Z" fill="#B91C1C" fill-opacity="1.000000" fill-rule="evenodd"/>
		<path id="Vector (Stroke)" d="M3.64648 3.64648C3.45117 3.8418 3.45117 4.1582 3.64648 4.35352L7.29297 8L3.64648 11.6465C3.45117 11.8418 3.45117 12.1582 3.64648 12.3535C3.8418 12.5488 4.1582 12.5488 4.35352 12.3535L8 8.70703L11.6465 12.3535C11.8418 12.5488 12.1582 12.5488 12.3535 12.3535C12.5488 12.1582 12.5488 11.8418 12.3535 11.6465L8.70703 8L12.3535 4.35352C12.5488 4.1582 12.5488 3.8418 12.3535 3.64648C12.1582 3.45117 11.8418 3.45117 11.6465 3.64648L8 7.29297L4.35352 3.64648C4.1582 3.45117 3.8418 3.45117 3.64648 3.64648Z" stroke="#B91C1C" stroke-opacity="1.000000" stroke-width="0.500000" stroke-linejoin="round"/>
	</g>
</svg>
